STARTFONT 2.1
COMMENT This font was automaticaly reencoded from ISO8859-2 to ISO10646-1.
COMMENT by trbdf utility (ftp://lml.bas.bg/home/anton/linux/trscripts-1.5.tar.gz)
COMMENT The COMMENTs below (if any) are from the original font.
COMMENT ---------------------------------------------------------
COMMENT +
COMMENT  Copyright 1986, 1985 Bigelow & Holmes. 
COMMENT  Copyright 1996 BIZNET Poland, Inc.
COMMENT -
FONT -BIZNET-FotinosTypewriter-Bold-R-Normal-Sans-12-120-75-75-M-70-ISO10646-1
SIZE 12 72 72
FONTBOUNDINGBOX 7 13 0 -2
STARTPROPERTIES 21
FOUNDRY "BIZNET"
FAMILY_NAME "BIZNET FotinosTypewriter"
WEIGHT_NAME "Bold"
SLANT "R"
SETWIDTH_NAME "Normal"
ADD_STYLE_NAME "Sans"
PIXEL_SIZE 12
POINT_SIZE 120
RESOLUTION_X 75
RESOLUTION_Y 75
SPACING "M"
AVERAGE_WIDTH 70
CHARSET_REGISTRY "ISO10646"
CHARSET_ENCODING "1"
FONT_ASCENT 11
FONT_DESCENT 2
FACE_NAME "BIZNET Fotinos Sans Typewriter Bold"
CHARSET_COLLECTIONS "ASCII ISO8859-2"
COPYRIGHT "Copyright Bigelow & Holmes 1986, 1985. Copyright (c) 1996 BIZNET Poland, Inc. All Rights Reserved."
NOTICE "The name "BIZNET" is a registered trademark of BIZNET Poland, Inc."
DEFAULT_CHAR 32
ENDPROPERTIES
CHARS 213
STARTCHAR Lslash
ENCODING 321
SWIDTH 602 0
DWIDTH 7 0
BBX 7 9 0 0
BITMAP
30
30
30
3C
F0
30
30
30
3E
ENDCHAR
STARTCHAR lslash
ENCODING 322
SWIDTH 602 0
DWIDTH 7 0
BBX 6 10 1 0
BITMAP
F0
30
30
3C
F0
30
30
30
30
30
ENDCHAR
STARTCHAR Nacute
ENCODING 323
SWIDTH 602 0
DWIDTH 7 0
BBX 6 11 1 0
BITMAP
18
30
C4
C4
E4
F4
B4
BC
9C
8C
8C
ENDCHAR
STARTCHAR nacute
ENCODING 324
SWIDTH 602 0
DWIDTH 7 0
BBX 6 10 1 0
BITMAP
18
30
00
D8
EC
CC
CC
CC
CC
CC
ENDCHAR
STARTCHAR n
ENCODING 110
SWIDTH 602 0
DWIDTH 7 0
BBX 6 7 1 0
BITMAP
D8
EC
CC
CC
CC
CC
CC
ENDCHAR
STARTCHAR o
ENCODING 111
SWIDTH 602 0
DWIDTH 7 0
BBX 6 7 1 0
BITMAP
78
CC
CC
CC
CC
CC
78
ENDCHAR
STARTCHAR p
ENCODING 112
SWIDTH 602 0
DWIDTH 7 0
BBX 6 9 1 -2
BITMAP
D8
EC
CC
CC
CC
CC
F8
C0
C0
ENDCHAR
STARTCHAR Ncaron
ENCODING 327
SWIDTH 602 0
DWIDTH 7 0
BBX 6 11 1 0
BITMAP
58
30
C4
C4
E4
F4
B4
BC
9C
8C
8C
ENDCHAR
STARTCHAR Racute
ENCODING 340
SWIDTH 602 0
DWIDTH 7 0
BBX 6 11 1 0
BITMAP
18
30
F8
CC
CC
C8
F0
D8
D8
CC
CC
ENDCHAR
STARTCHAR q
ENCODING 113
SWIDTH 602 0
DWIDTH 7 0
BBX 6 9 1 -2
BITMAP
7C
CC
CC
CC
CC
DC
6C
0C
0C
ENDCHAR
STARTCHAR ncaron
ENCODING 328
SWIDTH 602 0
DWIDTH 7 0
BBX 6 10 1 0
BITMAP
2C
18
00
D8
EC
CC
CC
CC
CC
CC
ENDCHAR
STARTCHAR racute
ENCODING 341
SWIDTH 602 0
DWIDTH 7 0
BBX 5 10 2 0
BITMAP
18
30
00
D8
D8
E0
C0
C0
C0
C0
ENDCHAR
STARTCHAR r
ENCODING 114
SWIDTH 602 0
DWIDTH 7 0
BBX 5 7 2 0
BITMAP
D8
D8
E0
C0
C0
C0
C0
ENDCHAR
STARTCHAR s
ENCODING 115
SWIDTH 602 0
DWIDTH 7 0
BBX 6 7 1 0
BITMAP
7C
C0
E0
78
1C
0C
F8
ENDCHAR
STARTCHAR t
ENCODING 116
SWIDTH 602 0
DWIDTH 7 0
BBX 6 9 1 0
BITMAP
20
60
FC
60
60
60
60
60
3C
ENDCHAR
STARTCHAR Rcaron
ENCODING 344
SWIDTH 602 0
DWIDTH 7 0
BBX 6 11 1 0
BITMAP
58
30
F8
CC
CC
C8
F0
D8
D8
CC
CC
ENDCHAR
STARTCHAR u
ENCODING 117
SWIDTH 602 0
DWIDTH 7 0
BBX 6 7 1 0
BITMAP
CC
CC
CC
CC
CC
DC
6C
ENDCHAR
STARTCHAR rcaron
ENCODING 345
SWIDTH 602 0
DWIDTH 7 0
BBX 5 10 2 0
BITMAP
58
30
00
D8
D8
E0
C0
C0
C0
C0
ENDCHAR
STARTCHAR v
ENCODING 118
SWIDTH 602 0
DWIDTH 7 0
BBX 6 7 1 0
BITMAP
CC
CC
CC
68
68
30
30
ENDCHAR
STARTCHAR Sacute
ENCODING 346
SWIDTH 602 0
DWIDTH 7 0
BBX 6 11 1 0
BITMAP
18
30
78
CC
C0
E0
78
1C
0C
CC
78
ENDCHAR
STARTCHAR w
ENCODING 119
SWIDTH 602 0
DWIDTH 7 0
BBX 6 7 1 0
BITMAP
C4
D4
D4
D4
68
68
68
ENDCHAR
STARTCHAR sacute
ENCODING 347
SWIDTH 602 0
DWIDTH 7 0
BBX 6 10 1 0
BITMAP
0C
18
00
7C
C0
E0
78
1C
0C
F8
ENDCHAR
STARTCHAR Uring
ENCODING 366
SWIDTH 602 0
DWIDTH 7 0
BBX 6 11 1 0
BITMAP
30
58
F4
C4
C4
C4
C4
C4
C4
68
30
ENDCHAR
STARTCHAR uring
ENCODING 367
SWIDTH 602 0
DWIDTH 7 0
BBX 6 11 1 0
BITMAP
30
58
30
00
CC
CC
CC
CC
CC
DC
6C
ENDCHAR
STARTCHAR zdotaccent
ENCODING 380
SWIDTH 602 0
DWIDTH 7 0
BBX 6 10 1 0
BITMAP
30
30
00
FC
1C
38
70
E0
C0
FC
ENDCHAR
STARTCHAR Uhungarumlaut
ENCODING 368
SWIDTH 602 0
DWIDTH 7 0
BBX 6 11 1 0
BITMAP
6C
48
C4
C4
C4
C4
C4
C4
C4
68
30
ENDCHAR
STARTCHAR Zcaron
ENCODING 381
SWIDTH 602 0
DWIDTH 7 0
BBX 6 11 1 0
BITMAP
58
30
FC
0C
1C
38
30
70
E0
C0
FC
ENDCHAR
STARTCHAR uhungarumlaut
ENCODING 369
SWIDTH 602 0
DWIDTH 7 0
BBX 6 10 1 0
BITMAP
6C
48
00
CC
CC
CC
CC
CC
DC
6C
ENDCHAR
STARTCHAR zcaron
ENCODING 382
SWIDTH 602 0
DWIDTH 7 0
BBX 6 10 1 0
BITMAP
58
30
00
FC
1C
38
70
E0
C0
FC
ENDCHAR
STARTCHAR hyphen
ENCODING 173
SWIDTH 602 0
DWIDTH 7 0
BBX 3 1 2 4
BITMAP
E0
ENDCHAR
STARTCHAR uni000A
ENCODING 10
SWIDTH 602 0
DWIDTH 7 0
BBX 6 9 1 0
BITMAP
C4
CC
C8
D0
E0
F0
D8
CC
CC
ENDCHAR
STARTCHAR uni000B
ENCODING 11
SWIDTH 602 0
DWIDTH 7 0
BBX 2 2 3 0
BITMAP
C0
C0
ENDCHAR
STARTCHAR degree
ENCODING 176
SWIDTH 602 0
DWIDTH 7 0
BBX 4 4 2 5
BITMAP
60
D0
D0
60
ENDCHAR
STARTCHAR uni000C
ENCODING 12
SWIDTH 602 0
DWIDTH 7 0
BBX 2 2 3 0
BITMAP
C0
C0
ENDCHAR
STARTCHAR uni000D
ENCODING 13
SWIDTH 602 0
DWIDTH 7 0
BBX 2 2 3 0
BITMAP
C0
C0
ENDCHAR
STARTCHAR Oacute
ENCODING 211
SWIDTH 602 0
DWIDTH 7 0
BBX 6 11 1 0
BITMAP
18
30
00
78
48
CC
CC
CC
CC
48
78
ENDCHAR
STARTCHAR uni000E
ENCODING 14
SWIDTH 602 0
DWIDTH 7 0
BBX 2 4 3 6
BITMAP
40
80
C0
C0
ENDCHAR
STARTCHAR Ocircumflex
ENCODING 212
SWIDTH 602 0
DWIDTH 7 0
BBX 6 11 1 0
BITMAP
30
58
00
78
48
CC
CC
CC
CC
48
78
ENDCHAR
STARTCHAR uni000F
ENCODING 15
SWIDTH 602 0
DWIDTH 7 0
BBX 7 7 0 1
BITMAP
10
10
10
FE
10
10
10
ENDCHAR
STARTCHAR Aacute
ENCODING 193
SWIDTH 602 0
DWIDTH 7 0
BBX 6 11 1 0
BITMAP
18
30
00
30
58
58
58
FC
8C
8C
8C
ENDCHAR
STARTCHAR Odieresis
ENCODING 214
SWIDTH 602 0
DWIDTH 7 0
BBX 6 11 1 0
BITMAP
48
48
00
78
48
CC
CC
CC
CC
48
78
ENDCHAR
STARTCHAR Acircumflex
ENCODING 194
SWIDTH 602 0
DWIDTH 7 0
BBX 6 11 1 0
BITMAP
30
58
00
30
58
58
58
FC
8C
8C
8C
ENDCHAR
STARTCHAR uni001E
ENCODING 30
SWIDTH 602 0
DWIDTH 7 0
BBX 5 9 2 0
BITMAP
C0
C0
C0
C0
C0
C0
C0
C0
F8
ENDCHAR
STARTCHAR multiply
ENCODING 215
SWIDTH 602 0
DWIDTH 7 0
BBX 7 7 0 1
BITMAP
C2
64
38
18
2C
46
82
ENDCHAR
STARTCHAR uni0012
ENCODING 18
SWIDTH 602 0
DWIDTH 7 0
BBX 6 1 1 4
BITMAP
FC
ENDCHAR
STARTCHAR Adieresis
ENCODING 196
SWIDTH 602 0
DWIDTH 7 0
BBX 6 11 1 0
BITMAP
48
48
00
30
58
58
58
FC
8C
8C
8C
ENDCHAR
STARTCHAR space
ENCODING 32
SWIDTH 602 0
DWIDTH 7 0
BBX 1 1 0 0
BITMAP
00
ENDCHAR
STARTCHAR exclam
ENCODING 33
SWIDTH 602 0
DWIDTH 7 0
BBX 2 9 3 0
BITMAP
C0
C0
C0
C0
C0
40
00
C0
C0
ENDCHAR
STARTCHAR ccedilla
ENCODING 231
SWIDTH 602 0
DWIDTH 7 0
BBX 6 9 1 -2
BITMAP
78
CC
C0
C0
C0
C4
78
20
C0
ENDCHAR
STARTCHAR Uacute
ENCODING 218
SWIDTH 602 0
DWIDTH 7 0
BBX 6 11 1 0
BITMAP
18
30
00
C4
C4
C4
C4
C4
C4
68
30
ENDCHAR
STARTCHAR quotedbl
ENCODING 34
SWIDTH 602 0
DWIDTH 7 0
BBX 5 4 2 6
BITMAP
D8
D8
90
90
ENDCHAR
STARTCHAR Ccedilla
ENCODING 199
SWIDTH 602 0
DWIDTH 7 0
BBX 6 11 1 -2
BITMAP
38
6C
C0
C0
C0
C0
C0
64
38
10
60
ENDCHAR
STARTCHAR numbersign
ENCODING 35
SWIDTH 602 0
DWIDTH 7 0
BBX 7 9 0 0
BITMAP
6C
6C
FE
6C
6C
FE
6C
6C
6C
ENDCHAR
STARTCHAR eacute
ENCODING 233
SWIDTH 602 0
DWIDTH 7 0
BBX 6 10 1 0
BITMAP
18
30
00
78
CC
CC
FC
C0
C4
78
ENDCHAR
STARTCHAR dollar
ENCODING 36
SWIDTH 602 0
DWIDTH 7 0
BBX 6 13 1 -2
BITMAP
10
10
78
C4
C0
E0
78
1C
0C
8C
78
20
20
ENDCHAR
STARTCHAR two
ENCODING 50
SWIDTH 602 0
DWIDTH 7 0
BBX 6 9 1 0
BITMAP
78
CC
0C
1C
38
60
C0
FC
FC
ENDCHAR
STARTCHAR percent
ENCODING 37
SWIDTH 602 0
DWIDTH 7 0
BBX 7 9 0 0
BITMAP
62
B6
B4
68
10
2C
56
D6
8C
ENDCHAR
STARTCHAR edieresis
ENCODING 235
SWIDTH 602 0
DWIDTH 7 0
BBX 6 10 1 0
BITMAP
48
48
00
78
CC
CC
FC
C0
C4
78
ENDCHAR
STARTCHAR three
ENCODING 51
SWIDTH 602 0
DWIDTH 7 0
BBX 6 9 1 0
BITMAP
78
CC
0C
0C
78
0C
0C
CC
78
ENDCHAR
STARTCHAR ampersand
ENCODING 38
SWIDTH 602 0
DWIDTH 7 0
BBX 6 9 1 0
BITMAP
70
D8
D8
D0
64
F4
D8
CC
74
ENDCHAR
STARTCHAR four
ENCODING 52
SWIDTH 602 0
DWIDTH 7 0
BBX 6 9 1 0
BITMAP
18
38
58
58
98
FC
FC
18
18
ENDCHAR
STARTCHAR quotesingle
ENCODING 39
SWIDTH 602 0
DWIDTH 7 0
BBX 2 4 3 6
BITMAP
C0
C0
40
80
ENDCHAR
STARTCHAR uacute
ENCODING 250
SWIDTH 602 0
DWIDTH 7 0
BBX 6 10 1 0
BITMAP
18
30
00
CC
CC
CC
CC
CC
DC
6C
ENDCHAR
STARTCHAR iacute
ENCODING 237
SWIDTH 602 0
DWIDTH 7 0
BBX 5 10 1 0
BITMAP
18
30
00
F0
30
30
30
30
30
30
ENDCHAR
STARTCHAR caron
ENCODING 711
SWIDTH 602 0
DWIDTH 7 0
BBX 4 2 1 8
BITMAP
B0
60
ENDCHAR
STARTCHAR five
ENCODING 53
SWIDTH 602 0
DWIDTH 7 0
BBX 6 9 1 0
BITMAP
7C
7C
40
40
78
0C
0C
CC
78
ENDCHAR
STARTCHAR icircumflex
ENCODING 238
SWIDTH 602 0
DWIDTH 7 0
BBX 5 10 1 0
BITMAP
30
58
00
F0
30
30
30
30
30
30
ENDCHAR
STARTCHAR six
ENCODING 54
SWIDTH 602 0
DWIDTH 7 0
BBX 6 9 1 0
BITMAP
78
CC
C0
C0
F8
CC
CC
CC
78
ENDCHAR
STARTCHAR udieresis
ENCODING 252
SWIDTH 602 0
DWIDTH 7 0
BBX 6 10 1 0
BITMAP
48
48
00
CC
CC
CC
CC
CC
DC
6C
ENDCHAR
STARTCHAR seven
ENCODING 55
SWIDTH 602 0
DWIDTH 7 0
BBX 6 9 1 0
BITMAP
FC
FC
0C
18
30
30
60
60
60
ENDCHAR
STARTCHAR yacute
ENCODING 253
SWIDTH 602 0
DWIDTH 7 0
BBX 6 12 1 -2
BITMAP
18
30
00
CC
CC
CC
68
68
30
30
20
60
ENDCHAR
STARTCHAR eight
ENCODING 56
SWIDTH 602 0
DWIDTH 7 0
BBX 6 9 1 0
BITMAP
78
CC
CC
EC
78
DC
CC
CC
78
ENDCHAR
STARTCHAR F
ENCODING 70
SWIDTH 602 0
DWIDTH 7 0
BBX 5 9 2 0
BITMAP
F8
C0
C0
C0
F0
C0
C0
C0
C0
ENDCHAR
STARTCHAR uni0002
ENCODING 2
SWIDTH 602 0
DWIDTH 7 0
BBX 7 9 0 0
BITMAP
6C
6C
FE
6C
6C
FE
6C
6C
6C
ENDCHAR
STARTCHAR nine
ENCODING 57
SWIDTH 602 0
DWIDTH 7 0
BBX 6 9 1 0
BITMAP
78
CC
CC
CC
7C
0C
0C
CC
78
ENDCHAR
STARTCHAR uni0003
ENCODING 3
SWIDTH 602 0
DWIDTH 7 0
BBX 6 9 1 0
BITMAP
FC
30
30
30
30
30
30
30
FC
ENDCHAR
STARTCHAR G
ENCODING 71
SWIDTH 602 0
DWIDTH 7 0
BBX 6 9 1 0
BITMAP
38
6C
C0
C0
C0
CC
CC
6C
3C
ENDCHAR
STARTCHAR colon
ENCODING 58
SWIDTH 602 0
DWIDTH 7 0
BBX 2 7 3 0
BITMAP
C0
C0
00
00
00
C0
C0
ENDCHAR
STARTCHAR uni0004
ENCODING 4
SWIDTH 602 0
DWIDTH 7 0
BBX 5 9 2 0
BITMAP
C0
C0
C0
C0
C0
C0
C0
C0
F8
ENDCHAR
STARTCHAR H
ENCODING 72
SWIDTH 602 0
DWIDTH 7 0
BBX 6 9 1 0
BITMAP
CC
CC
CC
CC
FC
CC
CC
CC
CC
ENDCHAR
STARTCHAR semicolon
ENCODING 59
SWIDTH 602 0
DWIDTH 7 0
BBX 2 9 3 -2
BITMAP
C0
C0
00
00
00
C0
C0
40
80
ENDCHAR
STARTCHAR Dcaron
ENCODING 270
SWIDTH 602 0
DWIDTH 7 0
BBX 6 11 1 0
BITMAP
58
30
F0
D8
CC
CC
CC
CC
CC
D8
F0
ENDCHAR
STARTCHAR ogonek
ENCODING 731
SWIDTH 602 0
DWIDTH 7 0
BBX 3 2 2 -2
BITMAP
80
60
ENDCHAR
STARTCHAR uni0005
ENCODING 5
SWIDTH 602 0
DWIDTH 7 0
BBX 6 9 1 0
BITMAP
CC
CC
FC
FC
AC
AC
AC
AC
8C
ENDCHAR
STARTCHAR I
ENCODING 73
SWIDTH 602 0
DWIDTH 7 0
BBX 6 9 1 0
BITMAP
FC
30
30
30
30
30
30
30
FC
ENDCHAR
STARTCHAR dcaron
ENCODING 271
SWIDTH 602 0
DWIDTH 7 0
BBX 7 10 1 0
BITMAP
0E
0E
0E
7E
CC
CC
CC
CC
DC
6C
ENDCHAR
STARTCHAR Abreve
ENCODING 258
SWIDTH 602 0
DWIDTH 7 0
BBX 6 11 1 0
BITMAP
48
30
30
30
58
58
58
FC
8C
8C
8C
ENDCHAR
STARTCHAR uni0006
ENCODING 6
SWIDTH 602 0
DWIDTH 7 0
BBX 5 9 1 0
BITMAP
F8
18
18
18
18
18
18
18
F0
ENDCHAR
STARTCHAR J
ENCODING 74
SWIDTH 602 0
DWIDTH 7 0
BBX 5 9 1 0
BITMAP
F8
18
18
18
18
18
18
18
F0
ENDCHAR
STARTCHAR abreve
ENCODING 259
SWIDTH 602 0
DWIDTH 7 0
BBX 6 10 1 0
BITMAP
48
30
00
78
CC
0C
7C
CC
CC
74
ENDCHAR
STARTCHAR Dcroat
ENCODING 272
SWIDTH 602 0
DWIDTH 7 0
BBX 7 9 0 0
BITMAP
78
6C
66
66
F6
66
66
6C
78
ENDCHAR
STARTCHAR hungarumlaut
ENCODING 733
SWIDTH 602 0
DWIDTH 7 0
BBX 5 2 1 8
BITMAP
D8
90
ENDCHAR
STARTCHAR uni0007
ENCODING 7
SWIDTH 602 0
DWIDTH 7 0
BBX 4 4 2 5
BITMAP
60
D0
D0
60
ENDCHAR
STARTCHAR K
ENCODING 75
SWIDTH 602 0
DWIDTH 7 0
BBX 6 9 1 0
BITMAP
C4
CC
C8
D0
E0
F0
D8
CC
CC
ENDCHAR
STARTCHAR dcroat
ENCODING 273
SWIDTH 602 0
DWIDTH 7 0
BBX 7 10 1 0
BITMAP
0C
7E
0C
7C
CC
CC
CC
CC
DC
6C
ENDCHAR
STARTCHAR L
ENCODING 76
SWIDTH 602 0
DWIDTH 7 0
BBX 5 9 2 0
BITMAP
C0
C0
C0
C0
C0
C0
C0
C0
F8
ENDCHAR
STARTCHAR Z
ENCODING 90
SWIDTH 602 0
DWIDTH 7 0
BBX 6 9 1 0
BITMAP
FC
0C
1C
38
30
70
E0
C0
FC
ENDCHAR
STARTCHAR M
ENCODING 77
SWIDTH 602 0
DWIDTH 7 0
BBX 6 9 1 0
BITMAP
CC
CC
FC
FC
AC
AC
AC
AC
8C
ENDCHAR
STARTCHAR bracketleft
ENCODING 91
SWIDTH 602 0
DWIDTH 7 0
BBX 4 11 2 -1
BITMAP
F0
C0
C0
C0
C0
C0
C0
C0
C0
C0
F0
ENDCHAR
STARTCHAR N
ENCODING 78
SWIDTH 602 0
DWIDTH 7 0
BBX 6 9 1 0
BITMAP
C4
C4
E4
F4
B4
BC
9C
8C
8C
ENDCHAR
STARTCHAR backslash
ENCODING 92
SWIDTH 602 0
DWIDTH 7 0
BBX 7 11 0 -1
BITMAP
C0
C0
60
60
30
30
18
0C
0C
06
06
ENDCHAR
STARTCHAR O
ENCODING 79
SWIDTH 602 0
DWIDTH 7 0
BBX 6 9 1 0
BITMAP
78
48
CC
CC
CC
CC
CC
48
78
ENDCHAR
STARTCHAR bracketright
ENCODING 93
SWIDTH 602 0
DWIDTH 7 0
BBX 4 11 2 -1
BITMAP
F0
30
30
30
30
30
30
30
30
30
F0
ENDCHAR
STARTCHAR asciicircum
ENCODING 94
SWIDTH 602 0
DWIDTH 7 0
BBX 7 7 0 2
BITMAP
10
38
28
6C
44
C6
82
ENDCHAR
STARTCHAR underscore
ENCODING 95
SWIDTH 602 0
DWIDTH 7 0
BBX 7 1 0 -1
BITMAP
FE
ENDCHAR
STARTCHAR Lacute
ENCODING 313
SWIDTH 602 0
DWIDTH 7 0
BBX 5 11 2 0
BITMAP
30
60
C0
C0
C0
C0
C0
C0
C0
C0
F8
ENDCHAR
STARTCHAR grave
ENCODING 96
SWIDTH 602 0
DWIDTH 7 0
BBX 2 4 3 6
BITMAP
40
80
C0
C0
ENDCHAR
STARTCHAR lacute
ENCODING 314
SWIDTH 602 0
DWIDTH 7 0
BBX 5 11 1 0
BITMAP
18
F0
30
30
30
30
30
30
30
30
30
ENDCHAR
STARTCHAR d
ENCODING 100
SWIDTH 602 0
DWIDTH 7 0
BBX 6 10 1 0
BITMAP
0C
0C
0C
7C
CC
CC
CC
CC
DC
6C
ENDCHAR
STARTCHAR a
ENCODING 97
SWIDTH 602 0
DWIDTH 7 0
BBX 6 7 1 0
BITMAP
78
CC
0C
7C
CC
CC
74
ENDCHAR
STARTCHAR e
ENCODING 101
SWIDTH 602 0
DWIDTH 7 0
BBX 6 7 1 0
BITMAP
78
CC
CC
FC
C0
C4
78
ENDCHAR
STARTCHAR b
ENCODING 98
SWIDTH 602 0
DWIDTH 7 0
BBX 6 10 1 0
BITMAP
C0
C0
C0
D8
EC
CC
CC
CC
CC
F8
ENDCHAR
STARTCHAR f
ENCODING 102
SWIDTH 602 0
DWIDTH 7 0
BBX 6 10 1 0
BITMAP
3C
60
60
FC
60
60
60
60
60
60
ENDCHAR
STARTCHAR c
ENCODING 99
SWIDTH 602 0
DWIDTH 7 0
BBX 6 7 1 0
BITMAP
78
CC
C0
C0
C0
C4
78
ENDCHAR
STARTCHAR Lcaron
ENCODING 317
SWIDTH 602 0
DWIDTH 7 0
BBX 5 9 2 0
BITMAP
D0
D0
D0
D0
C0
C0
C0
C0
F8
ENDCHAR
STARTCHAR g
ENCODING 103
SWIDTH 602 0
DWIDTH 7 0
BBX 6 9 1 -2
BITMAP
7C
CC
CC
CC
DC
6C
0C
CC
78
ENDCHAR
STARTCHAR lcaron
ENCODING 318
SWIDTH 602 0
DWIDTH 7 0
BBX 6 10 1 0
BITMAP
F4
34
34
34
30
30
30
30
30
30
ENDCHAR
STARTCHAR h
ENCODING 104
SWIDTH 602 0
DWIDTH 7 0
BBX 6 10 1 0
BITMAP
C0
C0
C0
D8
EC
CC
CC
CC
CC
CC
ENDCHAR
STARTCHAR i
ENCODING 105
SWIDTH 602 0
DWIDTH 7 0
BBX 4 10 1 0
BITMAP
30
30
00
F0
30
30
30
30
30
30
ENDCHAR
STARTCHAR j
ENCODING 106
SWIDTH 602 0
DWIDTH 7 0
BBX 4 12 1 -2
BITMAP
30
30
00
F0
30
30
30
30
30
30
30
E0
ENDCHAR
STARTCHAR x
ENCODING 120
SWIDTH 602 0
DWIDTH 7 0
BBX 6 7 1 0
BITMAP
CC
CC
68
30
58
CC
CC
ENDCHAR
STARTCHAR k
ENCODING 107
SWIDTH 602 0
DWIDTH 7 0
BBX 6 10 1 0
BITMAP
C0
C0
C0
CC
C8
D0
F0
D8
CC
CC
ENDCHAR
STARTCHAR y
ENCODING 121
SWIDTH 602 0
DWIDTH 7 0
BBX 6 9 1 -2
BITMAP
CC
CC
CC
68
68
30
30
20
60
ENDCHAR
STARTCHAR l
ENCODING 108
SWIDTH 602 0
DWIDTH 7 0
BBX 4 10 1 0
BITMAP
F0
30
30
30
30
30
30
30
30
30
ENDCHAR
STARTCHAR Ohungarumlaut
ENCODING 336
SWIDTH 602 0
DWIDTH 7 0
BBX 6 11 1 0
BITMAP
6C
48
78
48
CC
CC
CC
CC
CC
48
78
ENDCHAR
STARTCHAR z
ENCODING 122
SWIDTH 602 0
DWIDTH 7 0
BBX 6 7 1 0
BITMAP
FC
1C
38
70
E0
C0
FC
ENDCHAR
STARTCHAR m
ENCODING 109
SWIDTH 602 0
DWIDTH 7 0
BBX 6 7 1 0
BITMAP
F8
D4
D4
D4
D4
D4
D4
ENDCHAR
STARTCHAR ohungarumlaut
ENCODING 337
SWIDTH 602 0
DWIDTH 7 0
BBX 6 10 1 0
BITMAP
6C
48
00
78
CC
CC
CC
CC
CC
78
ENDCHAR
STARTCHAR Scommaaccent
ENCODING 350
SWIDTH 602 0
DWIDTH 7 0
BBX 6 11 1 -2
BITMAP
78
CC
C0
E0
78
1C
0C
CC
78
10
60
ENDCHAR
STARTCHAR braceleft
ENCODING 123
SWIDTH 602 0
DWIDTH 7 0
BBX 4 11 2 -1
BITMAP
70
C0
C0
60
20
C0
20
60
C0
C0
70
ENDCHAR
STARTCHAR scommaaccent
ENCODING 351
SWIDTH 602 0
DWIDTH 7 0
BBX 6 9 1 -2
BITMAP
7C
C0
E0
78
1C
0C
F8
20
C0
ENDCHAR
STARTCHAR bar
ENCODING 124
SWIDTH 602 0
DWIDTH 7 0
BBX 2 11 3 -1
BITMAP
C0
C0
C0
C0
C0
C0
C0
C0
C0
C0
C0
ENDCHAR
STARTCHAR Scaron
ENCODING 352
SWIDTH 602 0
DWIDTH 7 0
BBX 6 11 1 0
BITMAP
58
30
78
CC
C0
E0
78
1C
0C
CC
78
ENDCHAR
STARTCHAR braceright
ENCODING 125
SWIDTH 602 0
DWIDTH 7 0
BBX 4 11 2 -1
BITMAP
E0
30
30
60
40
30
40
60
30
30
E0
ENDCHAR
STARTCHAR scaron
ENCODING 353
SWIDTH 602 0
DWIDTH 7 0
BBX 6 10 1 0
BITMAP
2C
18
00
7C
C0
E0
78
1C
0C
F8
ENDCHAR
STARTCHAR asciitilde
ENCODING 126
SWIDTH 602 0
DWIDTH 7 0
BBX 6 3 1 3
BITMAP
64
B4
98
ENDCHAR
STARTCHAR Tcommaaccent
ENCODING 354
SWIDTH 602 0
DWIDTH 7 0
BBX 6 11 1 -2
BITMAP
FC
30
30
30
30
30
30
30
30
10
60
ENDCHAR
STARTCHAR tcommaaccent
ENCODING 355
SWIDTH 602 0
DWIDTH 7 0
BBX 6 11 1 -2
BITMAP
20
60
FC
60
60
60
60
60
3C
08
30
ENDCHAR
STARTCHAR Tcaron
ENCODING 356
SWIDTH 602 0
DWIDTH 7 0
BBX 6 11 1 0
BITMAP
58
30
FC
30
30
30
30
30
30
30
30
ENDCHAR
STARTCHAR tcaron
ENCODING 357
SWIDTH 602 0
DWIDTH 7 0
BBX 6 12 1 0
BITMAP
04
04
04
24
60
FC
60
60
60
60
60
3C
ENDCHAR
STARTCHAR Zacute
ENCODING 377
SWIDTH 602 0
DWIDTH 7 0
BBX 6 11 1 0
BITMAP
18
30
FC
0C
1C
38
30
70
E0
C0
FC
ENDCHAR
STARTCHAR zacute
ENCODING 378
SWIDTH 602 0
DWIDTH 7 0
BBX 6 10 1 0
BITMAP
18
30
00
FC
1C
38
70
E0
C0
FC
ENDCHAR
STARTCHAR currency
ENCODING 164
SWIDTH 602 0
DWIDTH 7 0
BBX 7 9 0 0
BITMAP
82
C6
7C
4C
4C
4C
7C
C6
82
ENDCHAR
STARTCHAR Zdotaccent
ENCODING 379
SWIDTH 602 0
DWIDTH 7 0
BBX 6 11 1 0
BITMAP
30
30
FC
0C
1C
38
30
70
E0
C0
FC
ENDCHAR
STARTCHAR acute
ENCODING 180
SWIDTH 602 0
DWIDTH 7 0
BBX 3 2 3 8
BITMAP
60
C0
ENDCHAR
STARTCHAR section
ENCODING 167
SWIDTH 602 0
DWIDTH 7 0
BBX 6 10 1 -1
BITMAP
78
CC
E0
78
8C
C4
78
1C
CC
78
ENDCHAR
STARTCHAR Eacute
ENCODING 201
SWIDTH 602 0
DWIDTH 7 0
BBX 5 11 2 0
BITMAP
30
60
00
F8
C0
C0
F0
C0
C0
C0
F8
ENDCHAR
STARTCHAR dieresis
ENCODING 168
SWIDTH 602 0
DWIDTH 7 0
BBX 4 2 2 8
BITMAP
90
90
ENDCHAR
STARTCHAR Edieresis
ENCODING 203
SWIDTH 602 0
DWIDTH 7 0
BBX 5 11 2 0
BITMAP
48
48
00
F8
C0
C0
F0
C0
C0
C0
F8
ENDCHAR
STARTCHAR cedilla
ENCODING 184
SWIDTH 602 0
DWIDTH 7 0
BBX 3 2 2 -2
BITMAP
20
C0
ENDCHAR
STARTCHAR Iacute
ENCODING 205
SWIDTH 602 0
DWIDTH 7 0
BBX 6 11 1 0
BITMAP
18
30
00
FC
30
30
30
30
30
30
FC
ENDCHAR
STARTCHAR uni0015
ENCODING 21
SWIDTH 602 0
DWIDTH 7 0
BBX 7 7 0 1
BITMAP
10
10
10
FE
10
10
10
ENDCHAR
STARTCHAR Icircumflex
ENCODING 206
SWIDTH 602 0
DWIDTH 7 0
BBX 6 11 1 0
BITMAP
30
58
00
FC
30
30
30
30
30
30
FC
ENDCHAR
STARTCHAR uni0016
ENCODING 22
SWIDTH 602 0
DWIDTH 7 0
BBX 7 7 0 1
BITMAP
10
10
10
FE
10
10
10
ENDCHAR
STARTCHAR Udieresis
ENCODING 220
SWIDTH 602 0
DWIDTH 7 0
BBX 6 11 1 0
BITMAP
48
48
00
C4
C4
C4
C4
C4
C4
68
30
ENDCHAR
STARTCHAR uni0017
ENCODING 23
SWIDTH 602 0
DWIDTH 7 0
BBX 7 7 0 1
BITMAP
10
10
10
FE
10
10
10
ENDCHAR
STARTCHAR Yacute
ENCODING 221
SWIDTH 602 0
DWIDTH 7 0
BBX 6 11 1 0
BITMAP
18
30
00
CC
CC
48
78
30
30
30
30
ENDCHAR
STARTCHAR uni0018
ENCODING 24
SWIDTH 602 0
DWIDTH 7 0
BBX 7 7 0 1
BITMAP
10
10
10
FE
10
10
10
ENDCHAR
STARTCHAR uni0019
ENCODING 25
SWIDTH 602 0
DWIDTH 7 0
BBX 2 11 3 -1
BITMAP
C0
C0
C0
C0
C0
C0
C0
C0
C0
C0
C0
ENDCHAR
STARTCHAR uni2010
ENCODING 8208
SWIDTH 602 0
DWIDTH 7 0
BBX 6 1 1 4
BITMAP
FC
ENDCHAR
STARTCHAR germandbls
ENCODING 223
SWIDTH 602 0
DWIDTH 7 0
BBX 6 10 1 0
BITMAP
70
D8
C8
C8
D0
C8
CC
CC
CC
D8
ENDCHAR
STARTCHAR uni001A
ENCODING 26
SWIDTH 602 0
DWIDTH 7 0
BBX 6 7 0 1
BITMAP
0C
38
60
C0
60
38
0C
ENDCHAR
STARTCHAR uni001B
ENCODING 27
SWIDTH 602 0
DWIDTH 7 0
BBX 6 7 1 1
BITMAP
C0
70
18
0C
18
70
C0
ENDCHAR
STARTCHAR parenleft
ENCODING 40
SWIDTH 602 0
DWIDTH 7 0
BBX 4 11 2 -1
BITMAP
30
60
C0
C0
C0
C0
C0
C0
C0
60
30
ENDCHAR
STARTCHAR aacute
ENCODING 225
SWIDTH 602 0
DWIDTH 7 0
BBX 6 10 1 0
BITMAP
18
30
00
78
CC
0C
7C
CC
CC
74
ENDCHAR
STARTCHAR uni001C
ENCODING 28
SWIDTH 602 0
DWIDTH 7 0
BBX 6 9 1 -2
BITMAP
D8
EC
CC
CC
CC
CC
F8
C0
C0
ENDCHAR
STARTCHAR parenright
ENCODING 41
SWIDTH 602 0
DWIDTH 7 0
BBX 4 11 1 -1
BITMAP
C0
60
30
30
30
30
30
30
30
60
C0
ENDCHAR
STARTCHAR acircumflex
ENCODING 226
SWIDTH 602 0
DWIDTH 7 0
BBX 6 10 1 0
BITMAP
30
58
00
78
CC
0C
7C
CC
CC
74
ENDCHAR
STARTCHAR asterisk
ENCODING 42
SWIDTH 602 0
DWIDTH 7 0
BBX 5 5 1 4
BITMAP
20
A8
70
A8
20
ENDCHAR
STARTCHAR plus
ENCODING 43
SWIDTH 602 0
DWIDTH 7 0
BBX 7 7 0 1
BITMAP
10
10
10
FE
10
10
10
ENDCHAR
STARTCHAR adieresis
ENCODING 228
SWIDTH 602 0
DWIDTH 7 0
BBX 6 10 1 0
BITMAP
48
48
00
78
CC
0C
7C
CC
CC
74
ENDCHAR
STARTCHAR comma
ENCODING 44
SWIDTH 602 0
DWIDTH 7 0
BBX 2 4 3 -2
BITMAP
C0
C0
40
80
ENDCHAR
STARTCHAR hyphen
ENCODING 45
SWIDTH 602 0
DWIDTH 7 0
BBX 6 1 1 4
BITMAP
FC
ENDCHAR
STARTCHAR oacute
ENCODING 243
SWIDTH 602 0
DWIDTH 7 0
BBX 6 10 1 0
BITMAP
18
30
00
78
CC
CC
CC
CC
CC
78
ENDCHAR
STARTCHAR period
ENCODING 46
SWIDTH 602 0
DWIDTH 7 0
BBX 2 2 3 0
BITMAP
C0
C0
ENDCHAR
STARTCHAR ocircumflex
ENCODING 244
SWIDTH 602 0
DWIDTH 7 0
BBX 6 10 1 0
BITMAP
30
58
00
78
CC
CC
CC
CC
CC
78
ENDCHAR
STARTCHAR less
ENCODING 60
SWIDTH 602 0
DWIDTH 7 0
BBX 6 7 0 1
BITMAP
0C
38
60
C0
60
38
0C
ENDCHAR
STARTCHAR slash
ENCODING 47
SWIDTH 602 0
DWIDTH 7 0
BBX 7 11 0 -1
BITMAP
06
06
0C
0C
18
18
30
60
60
C0
C0
ENDCHAR
STARTCHAR equal
ENCODING 61
SWIDTH 602 0
DWIDTH 7 0
BBX 6 3 1 3
BITMAP
FC
00
FC
ENDCHAR
STARTCHAR zero
ENCODING 48
SWIDTH 602 0
DWIDTH 7 0
BBX 6 9 1 0
BITMAP
78
CC
CC
CC
CC
CC
CC
CC
78
ENDCHAR
STARTCHAR odieresis
ENCODING 246
SWIDTH 602 0
DWIDTH 7 0
BBX 6 10 1 0
BITMAP
48
48
00
78
CC
CC
CC
CC
CC
78
ENDCHAR
STARTCHAR greater
ENCODING 62
SWIDTH 602 0
DWIDTH 7 0
BBX 6 7 1 1
BITMAP
C0
70
18
0C
18
70
C0
ENDCHAR
STARTCHAR one
ENCODING 49
SWIDTH 602 0
DWIDTH 7 0
BBX 4 9 1 0
BITMAP
30
F0
30
30
30
30
30
30
30
ENDCHAR
STARTCHAR divide
ENCODING 247
SWIDTH 602 0
DWIDTH 7 0
BBX 7 7 0 1
BITMAP
10
10
00
FE
00
10
10
ENDCHAR
STARTCHAR Aogonek
ENCODING 260
SWIDTH 602 0
DWIDTH 7 0
BBX 6 11 1 -2
BITMAP
30
30
58
58
58
FC
8C
8C
8C
08
0C
ENDCHAR
STARTCHAR question
ENCODING 63
SWIDTH 602 0
DWIDTH 7 0
BBX 5 9 2 0
BITMAP
70
98
18
30
60
60
00
60
60
ENDCHAR
STARTCHAR aogonek
ENCODING 261
SWIDTH 602 0
DWIDTH 7 0
BBX 6 9 1 -2
BITMAP
78
CC
0C
7C
CC
CC
74
08
0C
ENDCHAR
STARTCHAR at
ENCODING 64
SWIDTH 602 0
DWIDTH 7 0
BBX 7 9 0 0
BITMAP
7C
C6
9E
B6
B6
B6
9A
C0
7C
ENDCHAR
STARTCHAR Cacute
ENCODING 262
SWIDTH 602 0
DWIDTH 7 0
BBX 6 11 1 0
BITMAP
0C
18
38
6C
C0
C0
C0
C0
C0
64
38
ENDCHAR
STARTCHAR A
ENCODING 65
SWIDTH 602 0
DWIDTH 7 0
BBX 6 9 1 0
BITMAP
30
30
58
58
58
FC
8C
8C
8C
ENDCHAR
STARTCHAR cacute
ENCODING 263
SWIDTH 602 0
DWIDTH 7 0
BBX 6 10 1 0
BITMAP
18
30
00
78
CC
C0
C0
C0
C4
78
ENDCHAR
STARTCHAR B
ENCODING 66
SWIDTH 602 0
DWIDTH 7 0
BBX 6 9 1 0
BITMAP
F8
CC
CC
C8
F0
C8
CC
CC
F8
ENDCHAR
STARTCHAR P
ENCODING 80
SWIDTH 602 0
DWIDTH 7 0
BBX 6 9 1 0
BITMAP
F8
CC
CC
CC
C8
F0
C0
C0
C0
ENDCHAR
STARTCHAR C
ENCODING 67
SWIDTH 602 0
DWIDTH 7 0
BBX 6 9 1 0
BITMAP
38
6C
C0
C0
C0
C0
C0
64
38
ENDCHAR
STARTCHAR Q
ENCODING 81
SWIDTH 602 0
DWIDTH 7 0
BBX 6 11 1 -2
BITMAP
78
48
CC
CC
CC
CC
CC
48
78
18
0C
ENDCHAR
STARTCHAR D
ENCODING 68
SWIDTH 602 0
DWIDTH 7 0
BBX 6 9 1 0
BITMAP
F0
D8
CC
CC
CC
CC
CC
D8
F0
ENDCHAR
STARTCHAR R
ENCODING 82
SWIDTH 602 0
DWIDTH 7 0
BBX 6 9 1 0
BITMAP
F8
CC
CC
C8
F0
D8
D8
CC
CC
ENDCHAR
STARTCHAR E
ENCODING 69
SWIDTH 602 0
DWIDTH 7 0
BBX 5 9 2 0
BITMAP
F8
C0
C0
C0
F0
C0
C0
C0
F8
ENDCHAR
STARTCHAR Eogonek
ENCODING 280
SWIDTH 602 0
DWIDTH 7 0
BBX 5 11 2 -2
BITMAP
F8
C0
C0
C0
F0
C0
C0
C0
F8
10
18
ENDCHAR
STARTCHAR breve
ENCODING 728
SWIDTH 602 0
DWIDTH 7 0
BBX 4 2 1 8
BITMAP
90
60
ENDCHAR
STARTCHAR S
ENCODING 83
SWIDTH 602 0
DWIDTH 7 0
BBX 6 9 1 0
BITMAP
78
CC
C0
E0
78
1C
0C
CC
78
ENDCHAR
STARTCHAR dotaccent
ENCODING 729
SWIDTH 602 0
DWIDTH 7 0
BBX 2 2 2 8
BITMAP
C0
C0
ENDCHAR
STARTCHAR eogonek
ENCODING 281
SWIDTH 602 0
DWIDTH 7 0
BBX 6 9 1 -2
BITMAP
78
CC
CC
FC
C0
C4
78
20
30
ENDCHAR
STARTCHAR Ccaron
ENCODING 268
SWIDTH 602 0
DWIDTH 7 0
BBX 6 11 1 0
BITMAP
2C
18
38
6C
C0
C0
C0
C0
C0
64
38
ENDCHAR
STARTCHAR T
ENCODING 84
SWIDTH 602 0
DWIDTH 7 0
BBX 6 9 1 0
BITMAP
FC
30
30
30
30
30
30
30
30
ENDCHAR
STARTCHAR ccaron
ENCODING 269
SWIDTH 602 0
DWIDTH 7 0
BBX 6 10 1 0
BITMAP
58
30
00
78
CC
C0
C0
C0
C4
78
ENDCHAR
STARTCHAR Ecaron
ENCODING 282
SWIDTH 602 0
DWIDTH 7 0
BBX 5 11 2 0
BITMAP
58
30
F8
C0
C0
C0
F0
C0
C0
C0
F8
ENDCHAR
STARTCHAR U
ENCODING 85
SWIDTH 602 0
DWIDTH 7 0
BBX 6 9 1 0
BITMAP
C4
C4
C4
C4
C4
C4
C4
68
30
ENDCHAR
STARTCHAR ecaron
ENCODING 283
SWIDTH 602 0
DWIDTH 7 0
BBX 6 10 1 0
BITMAP
58
30
00
78
CC
CC
FC
C0
C4
78
ENDCHAR
STARTCHAR V
ENCODING 86
SWIDTH 602 0
DWIDTH 7 0
BBX 6 9 1 0
BITMAP
CC
CC
CC
C8
68
68
70
30
30
ENDCHAR
STARTCHAR W
ENCODING 87
SWIDTH 602 0
DWIDTH 7 0
BBX 6 9 1 0
BITMAP
C4
C4
D4
D4
D4
7C
68
68
68
ENDCHAR
STARTCHAR X
ENCODING 88
SWIDTH 602 0
DWIDTH 7 0
BBX 6 9 1 0
BITMAP
CC
CC
68
70
30
38
58
CC
CC
ENDCHAR
STARTCHAR Y
ENCODING 89
SWIDTH 602 0
DWIDTH 7 0
BBX 6 9 1 0
BITMAP
CC
CC
CC
48
78
30
30
30
30
ENDCHAR
ENDFONT
